<?xml version="1.0" standalone="no"?>
<!DOCTYPE svg PUBLIC "-//W3C//DTD SVG 20010904//EN"
 "http://www.w3.org/TR/2001/REC-SVG-20010904/DTD/svg10.dtd">
<svg version="1.0" xmlns="http://www.w3.org/2000/svg"
 width="600.000000pt" height="600.000000pt" viewBox="0 0 600.000000 600.000000"
 preserveAspectRatio="xMidYMid meet">

<g transform="translate(0.000000,600.000000) scale(0.100000,-0.100000)"
fill="#000000" stroke="none">
<path d="M2555 4843 c-45 -24 -156 -111 -187 -147 -29 -33 -34 -46 -18 -46 6
0 10 6 10 13 0 7 10 21 21 31 17 14 23 15 30 5 5 -9 11 -5 21 16 20 45 51 73
120 110 35 19 56 34 48 34 -8 0 -28 -7 -45 -16z"/>
<path d="M3019 4833 c-7 -7 -17 -12 -23 -10 -6 3 -40 -2 -76 -11 -36 -9 -91
-15 -124 -14 -32 1 -86 -6 -120 -15 -33 -9 -83 -15 -109 -15 -63 2 -106 -20
-114 -59 -3 -16 -10 -32 -14 -35 -5 -3 -9 -16 -9 -28 0 -27 -24 -51 -41 -41
-8 6 -8 10 2 16 7 4 10 11 6 15 -4 4 -14 -2 -22 -13 -18 -25 -73 -55 -87 -47
-5 3 -19 -1 -31 -9 -12 -8 -39 -17 -59 -21 -30 -5 -37 -3 -41 11 -4 14 -5 13
-6 -4 0 -12 -5 -24 -10 -27 -10 -7 -96 47 -138 86 -25 25 -31 27 -27 11 3 -11
30 -41 60 -67 30 -27 54 -54 54 -62 0 -7 -15 -25 -34 -39 -34 -26 -66 -25 -66
2 0 8 -4 12 -9 8 -5 -3 -12 5 -14 17 -4 23 -4 23 -6 1 -1 -21 -2 -22 -46 -9
-25 8 -45 10 -45 5 0 -5 -9 -9 -20 -9 -38 0 -20 -19 35 -35 59 -17 72 -34 28
-36 -21 -1 -23 -2 -8 -6 38 -9 37 -21 -1 -21 -46 0 -62 7 -43 19 9 6 2 9 -21
9 -19 0 -42 -5 -50 -10 -11 -8 -8 -9 13 -4 20 5 27 2 27 -9 0 -8 -7 -17 -15
-20 -12 -5 -12 -10 0 -34 20 -37 19 -48 -2 -32 -10 7 -8 2 5 -12 30 -34 28
-39 -10 -33 l-33 5 33 -15 c17 -8 32 -20 32 -27 0 -11 -17 -10 -80 7 -14 4
-21 3 -17 -1 4 -5 15 -10 23 -11 19 -3 84 -46 84 -56 0 -5 8 -8 18 -8 12 0 13
-3 5 -8 -16 -10 -12 -64 7 -80 8 -8 10 -11 4 -8 -11 6 -108 -53 -101 -61 2 -2
16 1 31 7 33 12 86 13 86 2 0 -14 -32 -39 -60 -47 -42 -13 -100 -45 -100 -56
0 -6 13 -1 28 10 31 21 112 44 112 31 0 -15 -53 -60 -70 -60 -10 0 -20 -7 -24
-15 -4 -13 -2 -13 14 -5 35 19 39 10 15 -33 -23 -44 -45 -125 -27 -98 5 7 12
9 15 5 6 -12 2 -103 -7 -130 -8 -27 -10 -212 -4 -331 l6 -92 -42 5 c-32 5 -47
1 -68 -15 -28 -23 -64 -112 -54 -137 3 -8 2 -12 -4 -9 -5 3 -8 -23 -7 -65 1
-38 5 -70 9 -70 4 0 5 -7 2 -15 -4 -8 -2 -15 4 -15 14 0 31 -53 38 -115 6 -55
21 -109 38 -140 12 -21 13 -27 15 -63 1 -18 5 -21 25 -16 13 3 27 1 30 -5 5
-7 -3 -11 -18 -11 -24 0 -25 -2 -14 -25 6 -14 15 -25 20 -25 4 0 8 -11 8 -23
0 -31 52 -102 92 -127 17 -10 53 -22 79 -25 39 -6 50 -11 54 -28 2 -12 16 -83
31 -157 26 -134 57 -233 93 -300 11 -19 21 -57 23 -84 l3 -49 -69 -23 c-38
-13 -85 -36 -105 -51 -72 -56 -179 -183 -221 -264 -10 -19 -29 -40 -42 -46
-13 -6 -43 -28 -68 -50 -33 -29 -80 -53 -170 -87 -619 -236 -922 -382 -1293
-623 -92 -60 -100 -68 -129 -128 -16 -36 -36 -70 -44 -76 -11 -9 -14 -46 -14
-160 l0 -149 1195 0 c1179 0 1195 0 1183 19 -7 11 -15 18 -19 15 -8 -4 -39 34
-39 48 0 4 8 5 18 1 11 -4 10 0 -5 11 -22 16 -32 46 -15 46 4 0 19 -7 32 -16
l25 -16 -24 21 c-13 12 -32 21 -42 21 -10 0 -19 5 -19 10 0 6 5 10 12 10 6 0
9 2 6 5 -3 3 -12 3 -21 -1 -12 -4 -14 -11 -7 -25 6 -10 14 -28 20 -39 8 -15 7
-18 -5 -14 -8 4 -15 15 -15 26 0 14 -5 18 -16 14 -12 -4 -15 -2 -10 9 3 8 1
14 -5 12 -6 -1 -19 20 -29 46 -15 38 -16 47 -5 43 12 -4 13 8 9 66 -2 40 -7
90 -10 112 -11 72 -11 81 -8 88 7 12 75 -15 85 -34 5 -10 20 -18 32 -18 16 0
18 -3 8 -9 -7 -5 -10 -14 -6 -21 6 -9 9 -9 15 0 11 18 66 -5 122 -52 58 -48
155 -113 137 -92 -8 10 -57 49 -109 87 -106 77 -134 106 -156 157 -8 19 -30
51 -48 70 -37 39 -65 81 -84 124 -10 25 -10 27 3 16 8 -6 19 -9 25 -5 5 3 13
0 16 -9 3 -8 12 -12 19 -10 7 3 16 1 20 -5 4 -7 10 -7 20 2 10 9 10 15 1 26
-9 12 -7 13 9 7 16 -6 18 -5 8 5 -19 19 -16 28 7 22 11 -3 20 0 20 6 0 6 -6
11 -13 11 -7 0 -22 7 -33 16 -10 8 -13 13 -7 9 7 -3 21 -8 32 -10 17 -3 18 -1
6 40 -8 24 -11 46 -7 50 11 11 9 54 -2 52 -7 -1 -11 18 -12 51 0 28 3 52 8 52
5 0 6 -5 2 -12 -4 -7 -3 -8 4 -4 6 4 9 13 5 21 -3 8 -1 15 5 15 6 0 13 -6 15
-12 4 -10 6 -10 6 0 1 7 -9 17 -21 22 -13 5 -19 9 -15 9 4 1 2 11 -5 24 -7 12
-13 42 -14 67 0 25 -4 54 -9 65 -7 18 -5 17 18 -4 15 -13 24 -28 21 -32 -3 -5
-1 -9 5 -9 7 0 41 -41 87 -108 1 -2 11 1 21 7 10 6 12 11 6 11 -7 0 -13 5 -13
11 0 8 5 7 15 -1 9 -7 13 -15 11 -18 -3 -2 6 -13 19 -24 14 -11 25 -26 25 -35
0 -12 -3 -13 -15 -3 -8 6 -13 15 -12 18 1 4 -3 9 -8 10 -6 2 -16 8 -22 14 -7
6 -13 6 -13 1 0 -8 27 -52 39 -63 3 -3 23 -25 45 -50 103 -121 246 -255 246
-231 0 5 -16 26 -35 47 -20 22 -41 48 -47 59 -9 17 -7 17 15 -4 15 -13 31 -20
38 -16 8 6 10 4 4 -6 -8 -12 -6 -12 8 0 21 17 21 25 1 45 -20 21 -10 20 21 0
24 -16 25 -15 25 5 0 22 -44 71 -63 71 -6 0 -8 3 -5 6 4 3 19 -1 35 -9 15 -8
42 -17 58 -21 30 -8 30 -8 10 12 -11 11 -24 19 -30 18 -5 0 -9 5 -8 12 2 6 -5
12 -15 12 -11 0 -13 3 -5 8 14 9 6 24 -22 40 -14 8 -16 12 -5 12 10 0 11 3 4
8 -16 11 -27 62 -13 62 8 0 8 4 0 14 -9 11 -9 16 0 22 8 5 9 3 4 -6 -6 -10 -3
-12 14 -7 13 3 55 -1 94 -9 69 -15 163 -15 360 1 52 4 75 -6 45 -19 -7 -3 1
-3 17 0 17 4 37 14 45 23 8 9 36 27 63 40 26 12 47 28 47 34 0 5 2 8 5 5 11
-11 -8 -38 -27 -38 -10 0 -16 -5 -13 -10 9 -14 -84 -103 -157 -151 -34 -21
-56 -39 -51 -39 15 0 141 86 182 124 66 61 221 250 216 264 -2 7 -1 11 3 8 8
-5 72 56 72 69 0 3 5 11 10 18 43 51 75 97 87 125 7 18 18 30 23 27 5 -3 -4
-27 -20 -52 -17 -26 -30 -53 -30 -60 0 -7 -4 -13 -10 -13 -5 0 -7 -6 -4 -14 3
-7 -2 -16 -11 -20 -10 -3 -15 -12 -11 -21 3 -9 0 -15 -9 -15 -8 0 -15 -5 -15
-11 0 -6 8 -8 19 -4 12 4 21 0 25 -11 4 -11 2 -15 -8 -11 -7 3 -19 0 -25 -6
-8 -8 -11 -8 -11 0 0 6 -9 9 -20 6 -17 -4 -18 -8 -8 -27 7 -11 11 -27 9 -35
-1 -7 2 -10 8 -6 6 3 11 1 11 -5 0 -6 4 -9 8 -6 14 8 33 -10 35 -32 2 -29 11
-28 36 5 l22 28 -16 -39 c-8 -21 -12 -42 -9 -47 3 -5 -1 -9 -8 -10 -7 0 -3 -5
10 -11 21 -11 30 -28 14 -28 -4 0 -8 -9 -9 -20 -1 -11 2 -20 6 -20 4 0 8 -13
9 -30 3 -51 5 -60 13 -60 4 0 5 -9 2 -20 -4 -14 0 -20 12 -20 11 0 15 -5 11
-16 -4 -10 -2 -13 6 -8 8 5 9 0 5 -15 -5 -22 -5 -22 14 -5 10 9 20 14 20 11 3
-13 6 -22 14 -40 7 -16 9 -16 26 4 l19 22 0 -30 c0 -66 -39 -159 -98 -236 -93
-119 -193 -227 -212 -227 -9 0 -39 -22 -66 -48 -49 -49 -162 -128 -177 -124
-4 1 -13 -9 -19 -23 -6 -14 -52 -58 -102 -98 -50 -39 -109 -89 -131 -110 l-40
-37 1464 2 1463 3 -1 134 -2 134 -52 51 c-116 114 -260 188 -632 327 -387 144
-727 307 -800 382 -20 21 -63 51 -96 67 -66 34 -106 82 -194 237 -93 162 -177
224 -367 267 -27 6 -28 7 -21 68 4 38 19 91 40 135 18 40 36 87 40 105 6 29 5
31 -9 20 -9 -7 -19 -25 -23 -40 -9 -39 -44 -108 -60 -122 -8 -7 -12 -16 -9
-21 3 -5 -2 -12 -10 -15 -9 -3 -16 -13 -16 -21 0 -22 -27 -46 -36 -32 -5 9
-10 8 -18 -3 -16 -22 -66 -52 -66 -40 0 6 5 14 10 17 13 8 13 35 0 35 -6 0
-20 -21 -30 -46 -11 -25 -24 -43 -30 -39 -11 7 -50 -16 -50 -30 -1 -14 -43
-60 -63 -68 -9 -3 -17 -13 -17 -21 0 -8 -9 -18 -20 -21 -11 -3 -20 -11 -20
-16 0 -5 -6 -9 -12 -9 -13 0 -36 -25 -104 -110 -37 -46 -74 -72 -109 -76 -11
-1 -46 -9 -77 -18 -54 -16 -71 -16 -213 -1 -72 8 -112 20 -145 43 -58 43 -89
74 -84 86 2 6 -5 17 -16 24 -16 10 -20 10 -20 0 -1 -17 -40 31 -40 48 0 8 7
14 16 14 15 0 15 2 0 26 -10 14 -15 31 -12 37 3 9 5 9 5 0 1 -7 5 -13 11 -13
5 0 6 7 3 17 -5 12 -3 14 8 8 10 -7 10 -3 -3 16 -11 17 -13 31 -7 40 14 22 11
28 -11 22 -11 -3 -31 2 -45 11 -30 20 -30 20 -48 1 -13 -13 -16 -13 -21 0 -3
8 0 15 7 15 7 0 4 5 -6 11 -15 9 -22 7 -33 -10 -16 -23 -69 -30 -62 -9 3 7
-11 27 -29 44 -27 26 -30 33 -18 38 9 3 13 11 10 17 -4 6 -13 8 -20 5 -7 -2
-15 5 -19 17 -4 16 -8 19 -17 10 -8 -8 -8 -17 1 -33 7 -12 8 -21 3 -18 -4 2
-27 12 -50 22 -24 10 -43 24 -43 32 0 8 -7 14 -15 14 -8 0 -15 5 -15 10 0 6 5
10 11 10 6 0 7 5 2 12 -4 7 -8 18 -9 23 0 6 -2 16 -2 23 -1 6 -7 12 -13 12 -6
0 -8 -7 -5 -16 3 -8 2 -12 -4 -9 -6 3 -10 13 -10 21 0 8 -4 14 -10 14 -5 0 -7
7 -4 15 4 8 2 15 -3 15 -5 0 -9 13 -8 29 0 16 3 27 7 24 5 -2 8 -10 8 -17 0
-7 9 -21 20 -31 11 -10 20 -13 20 -7 0 6 -4 14 -10 17 -15 10 -12 38 4 32 9
-4 14 3 14 20 0 39 -21 70 -43 67 -15 -2 -20 3 -21 21 -1 14 2 22 7 19 13 -8
11 10 -2 23 -9 9 -8 16 5 28 15 15 17 15 33 -1 20 -19 32 -2 14 20 -9 11 -9
15 1 19 9 4 9 6 1 6 -6 1 -15 -3 -18 -9 -3 -5 -11 -10 -16 -10 -6 0 -8 4 -5 9
4 5 1 11 -5 13 -7 2 -3 18 11 43 12 22 19 37 15 33 -11 -10 -45 10 -45 26 0 8
7 17 16 20 8 3 12 2 9 -4 -3 -6 -1 -10 6 -10 6 0 9 8 6 20 -3 10 0 21 7 23 6
2 -2 4 -17 4 -33 1 -58 20 -41 31 6 4 13 14 16 23 5 12 1 15 -17 13 -14 -1
-26 4 -29 13 -4 11 -2 13 9 9 8 -3 15 -2 16 2 0 4 2 17 5 30 4 24 -7 28 -36
12 -16 -9 -19 -5 -25 31 -4 22 -12 44 -18 50 -7 5 -19 15 -27 22 -8 7 -14 11
-11 10 6 -4 31 25 31 36 0 6 -6 11 -14 11 -9 0 -13 11 -12 33 0 21 -3 31 -11
29 -7 -1 -13 2 -13 8 0 5 6 10 13 10 9 0 9 2 -1 8 -8 6 -11 22 -8 45 3 23 0
37 -7 37 -6 0 -2 6 8 14 19 14 19 15 2 33 -19 22 -14 34 11 27 11 -4 10 -1 -3
7 -11 6 -21 13 -23 14 -1 1 0 10 4 19 4 10 13 15 24 11 10 -3 21 -1 25 5 3 5
-1 10 -9 10 -9 0 -16 6 -16 14 0 9 7 12 20 9 22 -6 25 -20 11 -43 -6 -8 -7
-18 -5 -22 7 -12 34 18 34 37 0 9 3 15 8 13 38 -18 142 -72 162 -83 14 -8 36
-15 48 -15 15 0 26 -7 29 -19 4 -15 11 -18 31 -14 15 2 35 5 45 6 9 1 17 4 17
7 0 3 33 2 73 -3 39 -5 82 -8 95 -8 12 0 22 -4 22 -10 0 -8 4 -8 14 0 8 7 25
9 40 5 26 -6 26 -6 5 -23 -16 -12 -19 -23 -14 -44 4 -15 11 -27 16 -27 5 0 9
-9 9 -19 0 -11 7 -26 15 -35 18 -17 20 -30 3 -20 -7 4 -8 3 -4 -4 5 -9 13 -9
26 -2 15 8 23 6 37 -9 36 -39 44 -51 34 -51 -5 0 -13 5 -16 10 -3 6 -12 10
-18 10 -7 -1 -1 -10 13 -22 l25 -21 -24 8 c-16 5 -21 4 -17 -4 4 -6 15 -11 24
-11 9 0 24 -5 32 -11 13 -9 12 -10 -2 -5 -20 6 -25 -9 -7 -20 21 -12 2 -75
-32 -105 -18 -16 -37 -29 -43 -29 -6 0 -19 -9 -31 -19 -11 -11 -32 -31 -47
-45 -34 -30 -35 -47 -5 -81 21 -25 75 -45 61 -23 -4 7 2 8 17 3 13 -4 26 -12
27 -16 2 -5 9 -6 14 -3 7 4 8 2 4 -4 -8 -13 37 -38 74 -43 33 -4 67 8 74 26 3
9 18 15 36 15 17 0 47 7 68 16 23 9 50 13 70 9 28 -5 32 -10 30 -33 -3 -25 0
-27 35 -30 28 -2 49 3 73 20 33 23 43 38 25 38 -6 0 -13 -4 -16 -10 -11 -18
-22 -10 -28 19 -4 18 -14 32 -27 36 -11 3 -20 15 -20 25 0 16 -4 17 -31 10
-18 -5 -39 -16 -49 -25 -22 -20 -117 -25 -150 -9 -35 18 -135 117 -121 122 6
2 11 12 11 23 0 10 5 19 10 19 6 0 10 6 10 13 0 6 7 25 16 42 8 16 16 42 17
57 1 15 8 28 15 28 6 0 12 9 12 19 0 11 5 23 10 26 8 5 8 11 1 19 -6 7 -8 16
-4 20 8 8 13 28 18 78 2 21 8 61 14 91 12 54 11 83 -2 105 -5 7 -3 12 5 12 9
0 10 3 2 8 -6 4 -10 15 -8 25 1 9 -2 17 -8 17 -6 0 -8 7 -4 15 4 11 -2 15 -20
15 -18 0 -25 4 -21 14 3 7 -2 24 -11 37 -15 21 -16 22 -23 3 -6 -17 -8 -16
-24 12 -13 21 -31 34 -59 42 -70 19 -148 31 -211 33 -33 1 -72 6 -88 12 -20 7
-31 6 -44 -4 -13 -11 -15 -11 -9 -1 6 10 -5 13 -51 11 -63 -2 -163 -27 -163
-40 0 -5 -7 -6 -15 -3 -23 9 -18 41 8 48 18 5 19 8 7 16 -8 5 -23 7 -32 4 -13
-4 -16 -1 -12 9 3 9 16 18 30 21 13 4 25 14 26 24 0 9 2 23 2 30 1 7 7 17 15
21 16 10 6 31 -14 31 -9 0 -12 -7 -9 -17 3 -10 -2 -7 -10 7 -8 14 -15 45 -16
70 -1 76 -1 81 -8 76 -4 -2 -7 22 -8 54 0 33 2 59 5 58 18 -2 21 4 11 21 -13
25 6 71 29 71 12 0 13 2 3 8 -14 9 -7 38 15 60 7 8 11 18 7 23 -3 6 0 16 6 24
6 8 9 19 5 24 -11 19 34 101 78 140 9 8 17 20 17 26 0 13 55 65 69 65 6 0 10
5 8 11 -2 13 46 31 81 30 12 0 22 4 22 9 0 6 11 8 25 4 20 -5 24 -3 20 9 -8
19 21 30 45 17 25 -13 51 -13 30 0 -12 8 -8 10 15 11 17 1 35 0 40 -1 6 -1 24
-3 40 -4 17 -1 35 -4 40 -7 6 -4 34 -12 63 -19 29 -7 59 -19 68 -27 14 -15 33
-21 68 -22 12 -1 16 -6 12 -16 -5 -13 5 -20 27 -16 12 2 8 -27 -5 -32 -21 -7
-2 -18 42 -24 28 -4 37 -9 28 -14 -8 -5 1 -6 22 -2 19 3 37 10 38 15 2 4 8 8
13 8 6 0 22 14 36 30 34 41 50 38 24 -6 -12 -19 -16 -32 -11 -29 6 3 17 20 26
36 11 21 19 28 27 21 24 -19 75 -23 110 -8 38 15 184 19 202 5 6 -4 36 -9 68
-10 63 -3 153 -42 171 -75 6 -10 21 -34 34 -52 13 -18 21 -39 19 -46 -3 -8 0
-19 6 -25 7 -7 12 -22 12 -34 0 -16 6 -21 19 -19 13 3 17 -1 13 -12 -4 -9 1
-21 11 -28 22 -16 39 -57 37 -85 -1 -12 2 -20 6 -18 3 3 10 -25 14 -61 6 -55
4 -67 -10 -78 -15 -11 -15 -14 4 -38 12 -14 21 -39 21 -55 0 -16 6 -35 13 -42
10 -11 10 -13 0 -7 -19 11 -16 -5 5 -21 9 -8 12 -12 5 -9 -6 3 -2 -12 8 -34
11 -22 17 -45 14 -50 -3 -6 -1 -10 5 -10 7 0 10 -7 6 -15 -3 -8 -1 -15 5 -15
6 0 7 -4 4 -10 -3 -5 -2 -10 3 -10 5 0 9 -6 9 -12 0 -7 6 -92 12 -188 7 -103
9 -231 5 -312 -5 -98 -4 -138 4 -138 15 0 31 32 24 49 -4 11 3 13 32 8 46 -7
87 24 105 81 17 52 12 73 -24 92 -34 17 -46 30 -38 42 2 5 -1 16 -8 24 -7 9
-11 39 -10 77 3 85 40 139 57 85 10 -35 44 -47 44 -17 0 6 -4 8 -9 4 -5 -3
-12 -2 -15 3 -3 5 9 8 27 8 34 -1 46 -21 31 -54 -4 -9 -8 -30 -10 -47 -2 -16
-6 -46 -9 -67 -4 -20 -3 -44 3 -53 7 -14 13 -7 27 39 10 30 24 61 31 67 10 8
14 35 13 93 -1 95 -8 125 -31 140 -14 9 -25 3 -61 -32 -23 -23 -46 -42 -50
-42 -4 0 3 20 15 45 16 33 26 44 39 40 24 -8 35 26 13 42 -10 7 -24 13 -31 13
-16 0 -16 0 1 42 8 18 19 92 25 163 6 72 14 149 16 172 3 23 -1 70 -9 105 -8
36 -11 67 -6 73 5 6 5 28 0 50 -5 21 -7 42 -5 46 3 3 0 21 -5 38 -7 26 -6 32
4 28 12 -5 12 1 1 31 -15 43 -36 155 -39 209 -3 44 -31 108 -56 126 -9 7 -20
29 -24 49 -4 23 -28 65 -58 104 -28 37 -45 63 -38 59 9 -6 10 -4 4 7 -15 25
-156 143 -219 183 -33 21 -87 56 -119 77 -33 21 -80 45 -105 52 -25 8 -66 23
-91 34 -25 11 -61 23 -80 27 -19 4 -55 10 -80 15 -25 4 -67 4 -94 -1 -31 -6
-62 -6 -80 0 -58 17 -164 20 -177 4z m131 -53 c-8 -5 -19 -10 -25 -10 -5 0 -3
5 5 10 8 5 20 10 25 10 6 0 3 -5 -5 -10z m-360 -10 c16 -10 15 -11 -15 -15
-11 -2 -49 -8 -85 -14 -80 -13 -83 -13 -75 -1 8 13 92 38 130 39 17 0 37 -4
45 -9z m-246 -16 c13 -5 14 -9 5 -20 -15 -18 -39 -18 -39 -1 0 12 9 27 16 27
1 0 10 -3 18 -6z m-46 -31 c-2 -10 -10 -17 -16 -15 -7 1 -12 -3 -12 -10 0 -6
-3 -9 -6 -6 -8 9 14 48 27 48 6 0 9 -8 7 -17z m232 2 c0 -3 -11 -10 -25 -15
-14 -5 -25 -16 -25 -24 0 -18 -42 -29 -52 -13 -9 15 5 29 45 44 35 13 57 16
57 8z m-468 -185 c-12 -11 -24 -20 -28 -20 -4 0 1 9 11 20 10 11 23 20 28 20
6 0 1 -9 -11 -20z m61 4 c9 -9 -19 -34 -37 -34 -9 0 -16 5 -16 10 0 6 7 10 15
10 8 0 15 5 15 10 0 11 13 13 23 4z m-186 -91 c2 -6 -5 -14 -17 -18 -26 -8
-33 -3 -24 19 7 19 35 18 41 -1z m-197 -108 c0 -8 -2 -15 -4 -15 -2 0 -6 7
-10 15 -3 8 -1 15 4 15 6 0 10 -7 10 -15z m-84 -32 c-4 -4 -11 -1 -16 7 -16
25 -11 35 7 17 9 -9 13 -20 9 -24z m35 26 c11 -6 18 -17 15 -24 -3 -9 0 -12
10 -8 7 3 14 1 14 -5 0 -18 -29 -6 -50 21 -23 29 -20 33 11 16z m1442 -336
c-7 -2 -19 -2 -25 0 -7 3 -2 5 12 5 14 0 19 -2 13 -5z m-1503 -239 c0 -8 -4
-12 -10 -9 -5 3 -10 10 -10 16 0 5 5 9 10 9 6 0 10 -7 10 -16z m320 -654 c0
-5 -2 -10 -4 -10 -3 0 -8 5 -11 10 -3 6 -1 10 4 10 6 0 11 -4 11 -10z m-400
-60 c8 -15 8 -20 -1 -20 -6 0 -9 -6 -6 -14 3 -8 3 -17 0 -20 -3 -3 -7 -22 -9
-42 -2 -20 -7 -41 -12 -48 -13 -16 -25 -86 -14 -86 4 0 14 16 21 35 10 28 18
35 39 35 15 0 40 1 56 2 39 4 45 -20 8 -33 -23 -8 -28 -15 -25 -33 6 -27 -19
-50 -47 -43 -25 6 -38 -11 -15 -19 10 -4 13 -9 6 -13 -11 -7 -15 -31 -13 -67
1 -11 18 -40 39 -63 31 -36 40 -42 64 -37 32 6 46 -8 29 -29 -12 -14 -8 -17
55 -51 14 -8 25 -32 37 -85 9 -41 17 -84 17 -96 2 -42 -61 -34 -108 15 -14 15
-38 37 -53 48 -32 25 -44 89 -22 118 16 22 4 50 -33 79 -38 30 -60 86 -62 157
-1 36 -9 84 -17 108 -17 52 -18 94 -2 110 9 9 9 12 1 12 -7 0 -10 12 -8 28 2
15 4 30 4 35 1 4 10 7 21 7 13 0 18 5 14 15 -9 23 23 18 36 -5z m60 5 c11 -13
10 -14 -4 -9 -9 3 -16 10 -16 15 0 13 6 11 20 -6z m10 -36 c0 7 5 9 11 5 8 -5
8 -8 0 -14 -9 -5 -9 -13 0 -34 11 -23 10 -28 -7 -40 -13 -10 -23 -11 -31 -4
-7 5 -17 7 -23 3 -8 -5 -9 4 -4 32 9 50 22 67 40 52 11 -9 14 -8 14 0z m533
-22 c3 -7 -3 -13 -14 -14 -12 -1 -16 3 -12 13 6 18 19 18 26 1z m1926 -16 c10
-7 7 -9 -12 -8 -14 1 -23 5 -20 10 6 9 15 9 32 -2z m-2219 -11 c0 -5 -4 -10
-10 -10 -5 0 -10 5 -10 10 0 6 5 10 10 10 6 0 10 -4 10 -10z m510 -35 c0 -8
-4 -15 -9 -15 -13 0 -22 16 -14 24 11 11 23 6 23 -9z m-82 -37 c10 -18 32 -40
49 -48 31 -14 43 -30 24 -30 -16 0 -86 32 -103 47 -13 12 -14 20 -6 44 12 34
13 33 36 -13z m152 32 c0 -5 -4 -10 -10 -10 -5 0 -10 5 -10 10 0 6 5 10 10 10
6 0 10 -4 10 -10z m71 -10 c10 -6 19 -20 19 -31 0 -16 4 -20 18 -15 15 6 15 5
2 -7 -21 -20 -76 -37 -119 -37 l-36 0 34 21 c18 11 38 33 44 49 13 34 12 33
38 20z m69 -70 c0 -5 -4 -10 -10 -10 -5 0 -10 5 -10 10 0 6 5 10 10 10 6 0 10
-4 10 -10z m60 -20 c0 -5 -2 -10 -4 -10 -3 0 -8 5 -11 10 -3 6 -1 10 4 10 6 0
11 -4 11 -10z m-968 -67 c0 -10 1 -26 0 -36 -1 -9 14 -47 33 -83 19 -36 32
-71 28 -77 -4 -6 -9 -2 -14 10 -4 11 -19 23 -33 27 -37 9 -63 41 -70 87 -5 34
-3 45 16 65 27 28 37 30 40 7z m958 13 c0 -3 -4 -8 -10 -11 -5 -3 -10 -1 -10
4 0 6 5 11 10 11 6 0 10 -2 10 -4z m1327 -107 c16 -16 -5 -75 -33 -90 -35 -18
-38 -6 -12 50 24 54 28 57 45 40z m-1947 -684 c0 -8 -2 -15 -4 -15 -2 0 -12
-3 -21 -6 -10 -4 -15 -2 -13 7 6 27 38 39 38 14z m255 -395 c3 -5 1 -10 -4
-10 -6 0 -11 5 -11 10 0 6 2 10 4 10 3 0 8 -4 11 -10z m1352 -107 c-2 -16 -4
-3 -4 27 0 30 2 43 4 28 2 -16 2 -40 0 -55z m-1448 -80 c15 -22 17 -31 8 -27
-8 3 -18 13 -21 22 -3 9 -9 24 -12 32 -8 19 -3 13 25 -27z m1361 17 c0 -5 -5
-10 -11 -10 -5 0 -7 5 -4 10 3 6 8 10 11 10 2 0 4 -4 4 -10z m-60 -80 c0 -5
-5 -10 -11 -10 -5 0 -7 5 -4 10 3 6 8 10 11 10 2 0 4 -4 4 -10z m23 -25 c-5
-13 -23 -22 -23 -11 0 15 14 35 21 31 4 -3 6 -12 2 -20z m-1332 -26 c10 -12
16 -25 13 -30 -3 -5 0 -18 6 -29 7 -13 7 -20 0 -20 -5 0 -10 5 -10 11 0 5 -5
7 -12 3 -7 -4 -8 -3 -4 4 4 7 3 12 -3 12 -6 0 -8 6 -5 14 3 8 1 24 -6 35 -14
27 -2 27 21 0z m57 -66 c1 -12 -3 -23 -9 -23 -5 0 -7 5 -4 10 4 6 2 17 -4 24
-8 9 -7 13 2 13 7 0 14 -11 15 -24z m2 -40 c0 -10 -19 -40 -21 -33 0 3 -2 13
-4 23 -2 9 3 17 11 17 8 0 14 -3 14 -7z m355 -283 c3 -5 1 -10 -4 -10 -6 0
-11 5 -11 10 0 6 2 10 4 10 3 0 8 -4 11 -10z"/>
<path d="M2160 4696 c-5 -15 -10 -37 -9 -49 0 -13 6 -4 14 23 16 49 12 69 -5
26z"/>
<path d="M1775 4320 c3 -5 11 -10 16 -10 6 0 7 5 4 10 -3 6 -11 10 -16 10 -6
0 -7 -4 -4 -10z"/>
<path d="M1770 4184 c0 -6 15 -23 33 -40 l32 -29 -30 35 c-16 19 -31 37 -32
39 -2 2 -3 0 -3 -5z"/>
<path d="M2185 3610 c3 -5 8 -10 11 -10 2 0 4 5 4 10 0 6 -5 10 -11 10 -5 0
-7 -4 -4 -10z"/>
<path d="M2205 3150 c-16 -7 -17 -9 -3 -9 9 -1 20 4 23 9 7 11 7 11 -20 0z"/>
<path d="M3648 3129 c-2 -6 -29 -11 -61 -12 -31 -1 -57 -5 -57 -9 0 -4 -47 -7
-104 -7 -102 0 -147 -9 -161 -31 -6 -9 -9 -9 -15 0 -5 8 -10 3 -14 -14 -3 -14
-13 -26 -21 -26 -18 0 -20 -16 -4 -26 8 -5 6 -10 -5 -16 -9 -5 -14 -13 -11
-18 3 -5 -1 -20 -10 -33 -9 -14 -18 -35 -22 -48 -9 -37 -9 -133 0 -144 4 -5
13 -18 20 -28 11 -16 13 -10 14 39 1 33 7 60 14 65 7 4 14 15 15 25 3 19 24
35 35 28 4 -2 1 -20 -7 -39 -13 -31 -13 -38 2 -60 9 -14 14 -34 11 -46 -4 -16
-2 -19 11 -14 9 4 33 9 52 12 19 2 40 9 45 15 7 8 5 9 -5 6 -8 -3 -21 1 -28 8
-8 9 -9 14 -2 14 6 0 9 4 6 9 -8 13 15 19 49 13 44 -8 119 -7 210 2 107 10
128 15 122 29 -3 9 7 11 36 8 34 -3 39 -1 34 14 -4 9 -7 27 -7 40 0 14 -7 26
-17 30 -22 7 -77 54 -71 61 10 10 159 14 153 4 -3 -5 -14 -11 -23 -11 -9 -1 1
-5 23 -8 22 -3 43 -2 46 2 3 4 12 7 19 5 8 -2 16 6 18 16 3 14 0 17 -12 13 -9
-4 -16 -2 -16 3 0 5 10 12 22 16 20 6 20 8 -12 24 -23 12 -29 19 -19 23 12 5
12 6 0 6 -8 1 -23 9 -33 18 -22 20 -34 23 -103 27 -27 2 -58 6 -67 9 -38 15
-47 15 -50 6z m-46 -217 c10 -8 15 -19 12 -24 -3 -5 -1 -15 6 -22 8 -11 4 -18
-22 -34 -18 -11 -46 -23 -62 -26 l-29 -7 32 37 c28 31 32 42 26 71 -7 37 -1
38 37 5z m-72 -13 c0 -5 -7 -9 -15 -9 -15 0 -20 12 -9 23 8 8 24 -1 24 -14z
m-150 -25 c7 -19 20 -40 31 -47 26 -16 24 -31 -3 -22 -13 4 -39 10 -58 14 -42
8 -48 28 -20 64 28 35 36 34 50 -9z m70 26 c0 -5 -4 -10 -10 -10 -5 0 -10 5
-10 10 0 6 5 10 10 10 6 0 10 -4 10 -10z m-150 -70 c0 -5 -7 -10 -15 -10 -8 0
-15 5 -15 10 0 6 7 10 15 10 8 0 15 -4 15 -10z"/>
<path d="M4240 2901 c0 -9 30 -24 36 -18 2 1 -6 8 -16 15 -11 7 -20 8 -20 3z"/>
<path d="M4270 2634 c0 -8 5 -12 10 -9 6 3 10 10 10 16 0 5 -4 9 -10 9 -5 0
-10 -7 -10 -16z"/>
<path d="M2726 2622 c-2 -4 -1 -14 3 -21 6 -10 10 -9 14 3 6 16 -8 32 -17 18z"/>
<path d="M4256 2593 c-3 -10 -22 -36 -42 -57 l-36 -39 23 -18 c17 -13 25 -14
28 -6 2 7 15 35 27 64 13 28 24 57 24 62 0 18 -18 13 -24 -6z"/>
<path d="M2080 2530 c0 -5 5 -10 11 -10 5 0 7 5 4 10 -3 6 -8 10 -11 10 -2 0
-4 -4 -4 -10z"/>
<path d="M3206 2405 c-9 -23 10 -62 33 -68 12 -3 20 -2 18 1 -2 4 -11 24 -21
45 -19 41 -21 43 -30 22z"/>
<path d="M3272 2324 c-13 -15 -7 -59 12 -83 8 -11 8 -13 -1 -7 -9 5 -13 1 -13
-12 0 -15 5 -19 19 -15 21 5 48 53 30 53 -6 0 -8 4 -4 9 3 6 -3 23 -12 39 -15
24 -20 27 -31 16z m13 -24 c3 -5 1 -10 -4 -10 -6 0 -11 5 -11 10 0 6 2 10 4
10 3 0 8 -4 11 -10z"/>
<path d="M3957 2303 c-4 -3 -7 -11 -7 -17 0 -6 5 -5 12 2 6 6 9 14 7 17 -3 3
-9 2 -12 -2z"/>
<path d="M4006 2265 c-3 -9 -10 -14 -15 -11 -16 11 -22 -27 -6 -43 13 -14 15
-13 15 12 0 25 3 27 43 27 23 0 49 4 56 9 10 6 0 8 -28 4 -29 -4 -46 -2 -51 6
-5 9 -9 8 -14 -4z"/>
<path d="M3940 2261 c0 -6 5 -13 10 -16 6 -3 10 1 10 9 0 9 -4 16 -10 16 -5 0
-10 -4 -10 -9z"/>
<path d="M3929 2240 c-5 -28 -4 -50 2 -50 13 0 20 33 9 44 -5 5 -10 8 -11 6z"/>
<path d="M2220 2190 c0 -5 5 -10 11 -10 5 0 7 5 4 10 -3 6 -8 10 -11 10 -2 0
-4 -4 -4 -10z"/>
<path d="M3934 2165 c-7 -17 16 -43 34 -37 14 4 16 42 2 42 -5 0 -10 -7 -10
-16 0 -8 -4 -13 -10 -9 -5 3 -7 12 -3 20 3 8 2 15 -1 15 -4 0 -9 -7 -12 -15z"/>
<path d="M3937 2068 c-3 -24 -9 -60 -15 -82 -15 -56 2 -31 21 33 19 59 22 91
8 91 -5 0 -11 -19 -14 -42z"/>
<path d="M2820 1935 c0 -8 4 -15 9 -15 5 0 11 7 15 15 3 9 0 15 -9 15 -8 0
-15 -7 -15 -15z"/>
<path d="M2835 1903 c-11 -2 -41 -10 -66 -18 -25 -8 -63 -17 -83 -19 -38 -5
-66 -21 -66 -38 0 -14 51 -73 62 -73 5 0 15 -8 22 -17 11 -15 41 -29 156 -74
42 -16 219 -18 273 -3 22 6 37 13 34 15 -9 9 -127 11 -127 3 0 -14 -40 -10
-56 5 -10 11 -22 12 -43 6 -16 -4 -31 -7 -33 -5 -2 1 -16 5 -32 9 -24 6 -27 4
-22 -9 3 -9 2 -13 -4 -10 -15 9 -12 32 6 39 10 4 13 13 9 26 -5 16 -2 20 17
21 13 0 46 1 74 2 42 2 50 -1 46 -13 -4 -12 -2 -12 14 1 13 11 32 16 58 14 22
-2 48 1 58 6 14 8 20 5 29 -13 7 -16 20 -24 42 -25 35 -3 141 30 172 53 20 15
20 15 0 30 -11 8 -26 12 -33 9 -8 -3 -70 14 -140 36 -113 38 -130 41 -170 31
-34 -7 -52 -7 -78 4 -32 14 -77 16 -119 7z"/>
<path d="M2304 1789 c-10 -17 10 -29 23 -14 10 10 9 14 -2 19 -8 3 -17 0 -21
-5z"/>
<path d="M3725 1720 c-3 -5 -1 -10 4 -10 6 0 11 5 11 10 0 6 -2 10 -4 10 -3 0
-8 -4 -11 -10z"/>
<path d="M2640 1632 c0 -5 7 -13 16 -16 10 -4 14 -1 12 6 -5 15 -28 23 -28 10z"/>
<path d="M2706 1601 c-3 -5 1 -11 9 -15 8 -3 15 -1 15 4 0 13 -18 22 -24 11z"/>
<path d="M3600 1315 c-7 -8 -10 -22 -6 -30 6 -17 36 -21 36 -5 0 6 -7 10 -16
10 -9 0 -14 6 -11 13 2 6 11 11 20 11 9 -1 14 2 11 7 -8 13 -20 11 -34 -6z"/>
<path d="M3645 1269 c-4 -6 -5 -12 -2 -15 2 -3 7 2 10 11 7 17 1 20 -8 4z"/>
<path d="M3571 1234 c0 -11 3 -14 6 -6 3 7 2 16 -1 19 -3 4 -6 -2 -5 -13z"/>
<path d="M3615 1230 c4 -6 11 -8 16 -5 14 9 11 15 -7 15 -8 0 -12 -5 -9 -10z"/>
<path d="M3690 1205 c-7 -9 -8 -15 -2 -15 5 0 12 7 16 15 3 8 4 15 2 15 -2 0
-9 -7 -16 -15z"/>
<path d="M3520 1190 c-9 -6 -10 -10 -3 -10 6 0 15 5 18 10 8 12 4 12 -15 0z"/>
<path d="M2320 1174 c0 -5 5 -15 12 -22 7 -7 9 -12 4 -12 -4 0 0 -7 9 -16 25
-26 25 -12 -1 26 -13 19 -24 30 -24 24z"/>
<path d="M2321 994 c0 -11 3 -14 6 -6 3 7 2 16 -1 19 -3 4 -6 -2 -5 -13z"/>
<path d="M2580 851 c0 -13 31 -43 38 -36 3 3 -4 14 -16 25 -12 12 -22 16 -22
11z"/>
<path d="M2630 801 c0 -5 5 -13 10 -16 6 -3 10 -2 10 4 0 5 -4 13 -10 16 -5 3
-10 2 -10 -4z"/>
<path d="M2320 701 c0 -6 4 -13 10 -16 6 -3 7 1 4 9 -7 18 -14 21 -14 7z"/>
<path d="M2304 328 c-4 -6 -3 -8 3 -5 6 4 16 -6 22 -23 11 -34 26 -39 33 -12
6 22 -47 58 -58 40z"/>
<path d="M2932 14 c10 -10 20 -15 24 -12 3 4 -5 12 -18 18 -22 12 -22 12 -6
-6z"/>
</g>
</svg>
